# Blender v3.0.0 OBJ File: ''
# www.blender.org
mtllib board.mtl
o Chess_Board_Grid.001
v -6.000000 -0.000002 8.000000
v -4.000000 -0.000002 8.000000
v -4.000000 -0.000002 6.000000
v -6.000000 -0.000002 6.000000
v -2.000000 -0.000002 8.000000
v 0.000000 -0.000002 8.000000
v 0.000000 -0.000002 6.000000
v -2.000000 -0.000002 6.000000
v 2.000000 -0.000002 8.000000
v 4.000000 -0.000002 8.000000
v 4.000000 -0.000002 6.000000
v 2.000000 -0.000002 6.000000
v 6.000000 -0.000002 8.000000
v 8.000000 -0.000002 8.000000
v 8.000000 -0.000002 6.000000
v 6.000000 -0.000002 6.000000
v -8.000000 -0.000002 6.000000
v -6.000000 -0.000002 4.000000
v -8.000000 -0.000002 4.000000
v -2.000000 -0.000002 4.000000
v -4.000000 -0.000002 4.000000
v 2.000000 -0.000002 4.000000
v 0.000000 -0.000002 4.000000
v 6.000000 -0.000002 4.000000
v 4.000000 -0.000002 4.000000
v -4.000000 -0.000000 2.000000
v -6.000000 -0.000000 2.000000
v 0.000000 -0.000000 2.000000
v -2.000000 -0.000000 2.000000
v 4.000000 -0.000000 2.000000
v 2.000000 -0.000000 2.000000
v 8.000000 -0.000002 4.000000
v 8.000000 -0.000000 2.000000
v 6.000000 -0.000000 2.000000
v -8.000000 -0.000000 2.000000
v -6.000000 0.000000 0.000000
v -8.000000 0.000000 0.000000
v -2.000000 0.000000 0.000000
v -4.000000 0.000000 0.000000
v 2.000000 0.000000 0.000000
v 0.000000 0.000000 0.000000
v 6.000000 0.000000 0.000000
v 4.000000 0.000000 0.000000
v -4.000000 0.000000 -2.000000
v -6.000000 0.000000 -2.000000
v 0.000000 0.000000 -2.000000
v -2.000000 0.000000 -2.000000
v 4.000000 0.000000 -2.000000
v 2.000000 0.000000 -2.000000
v 8.000000 0.000000 0.000000
v 8.000000 0.000000 -2.000000
v 6.000000 0.000000 -2.000000
v -8.000000 0.000000 -2.000000
v -6.000000 0.000002 -4.000000
v -8.000000 0.000002 -4.000000
v -2.000000 0.000002 -4.000000
v -4.000000 0.000002 -4.000000
v 2.000000 0.000002 -4.000000
v 0.000000 0.000002 -4.000000
v 6.000000 0.000002 -4.000000
v 4.000000 0.000002 -4.000000
v -4.000000 0.000002 -6.000000
v -6.000000 0.000002 -6.000000
v 0.000000 0.000002 -6.000000
v -2.000000 0.000002 -6.000000
v 4.000000 0.000002 -6.000000
v 2.000000 0.000002 -6.000000
v 8.000000 0.000002 -4.000000
v 8.000000 0.000002 -6.000000
v 6.000000 0.000002 -6.000000
v -8.000000 0.000002 -6.000000
v -6.000000 0.000002 -8.000000
v -8.000000 0.000002 -8.000000
v -2.000000 0.000002 -8.000000
v -4.000000 0.000002 -8.000000
v 2.000000 0.000002 -8.000000
v 0.000000 0.000002 -8.000000
v 6.000000 0.000002 -8.000000
v 4.000000 0.000002 -8.000000
v -8.000000 -0.000002 8.000000
v 8.000000 0.000002 -8.000000
v -8.800000 -0.101002 4.400000
v -8.800000 -0.101000 2.200000
v -8.800000 -0.899000 2.200000
v -8.800000 -0.899002 4.400000
v -6.600000 -0.101002 8.800000
v -8.699000 -0.101002 8.800000
v -8.699000 -0.899002 8.800000
v -6.600000 -0.899002 8.800000
v -8.800000 -0.100998 -4.400000
v -8.800000 -0.100998 -6.600000
v -8.800000 -0.898998 -6.600000
v -8.800000 -0.898998 -4.400000
v 0.000000 -0.100998 -8.800000
v 2.200000 -0.100998 -8.800000
v 2.200000 -0.898998 -8.800000
v 0.000000 -0.898998 -8.800000
v -8.699000 -0.000002 6.524251
v -8.699000 -0.000002 8.699000
v 8.800000 -0.101000 2.200000
v 8.800000 -0.101002 4.400000
v 8.800000 -0.899002 4.400000
v 8.800000 -0.899000 2.200000
v 6.600000 -0.101002 8.800000
v 4.400000 -0.101002 8.800000
v 4.400000 -0.899002 8.800000
v 6.600000 -0.899002 8.800000
v 8.800000 -0.100998 -6.600000
v 8.800000 -0.100998 -4.400000
v 8.800000 -0.898998 -4.400000
v 8.800000 -0.898998 -6.600000
v 4.400000 -0.100998 -8.800000
v 4.400000 -0.898998 -8.800000
v -8.800000 -0.101000 -0.000000
v -8.800000 -0.899000 -0.000000
v -2.200000 -0.101002 8.800000
v -4.400000 -0.101002 8.800000
v -4.400000 -0.899002 8.800000
v -2.200000 -0.899002 8.800000
v -8.800000 -0.100998 -8.699000
v -8.800000 -0.898998 -8.699000
v 6.600000 -0.100998 -8.800000
v 6.600000 -0.898998 -8.800000
v 8.800000 -0.101000 -0.000000
v 8.800000 -0.899000 -0.000000
v 8.699000 -0.101002 8.800000
v 8.699000 -0.899002 8.800000
v 8.800000 -0.100998 -8.699000
v 8.800000 -0.898998 -8.699000
v 8.699000 -0.100998 -8.800000
v 8.699000 -0.898998 -8.800000
v -8.800000 -0.101000 -2.200000
v -8.800000 -0.899000 -2.200000
v 0.000000 -0.101002 8.800000
v 0.000000 -0.899002 8.800000
v -8.699000 -0.100998 -8.800000
v -6.600000 -0.100998 -8.800000
v -6.600000 -0.898998 -8.800000
v -8.699000 -0.898998 -8.800000
v -4.400000 -0.100998 -8.800000
v -4.400000 -0.898998 -8.800000
v 8.800000 -0.101002 6.600000
v 8.800000 -0.101002 8.699000
v 8.800000 -0.899002 8.699000
v 8.800000 -0.899002 6.600000
v -8.699000 -1.000002 6.600000
v -8.699000 -1.000002 4.400000
v -8.699000 -1.000000 2.200000
v -8.699000 -1.000000 -0.000000
v -8.699000 -1.000000 -2.200000
v -8.699000 -0.999998 -4.400000
v -8.699000 -0.999998 -6.600000
v -8.699000 -0.999998 -8.699000
v -6.600000 -0.999998 -8.699000
v -4.400000 -0.999998 -8.699000
v -2.200000 -0.999998 -8.699000
v 0.000000 -0.999998 -8.699000
v 2.200000 -0.999998 -8.699000
v 4.400000 -0.999998 -8.699000
v 6.600000 -0.999998 -8.699000
v 8.699000 -0.999998 -8.699000
v 8.699000 -0.999998 -6.600000
v 8.699000 -0.999998 -4.400000
v 8.699000 -1.000000 -2.200000
v 8.699000 -1.000000 -0.000000
v 8.699000 -1.000000 2.200000
v 8.699000 -1.000002 4.400000
v 8.699000 -1.000002 6.600000
v 8.699000 -1.000002 8.699000
v 6.600000 -1.000002 8.699000
v 4.400000 -1.000002 8.699000
v 2.200000 -1.000002 8.699000
v 0.000000 -1.000002 8.699000
v -2.200000 -1.000002 8.699000
v -4.400000 -1.000002 8.699000
v -6.600000 -1.000002 8.699000
v -8.699000 -1.000002 8.699000
v 8.800000 -0.101000 -2.200000
v 8.800000 -0.899000 -2.200000
v -8.800000 -0.101002 6.600000
v -8.800000 -0.899002 6.600000
v 2.200000 -0.101002 8.800000
v 2.200000 -0.899002 8.800000
v -2.200000 -0.100998 -8.800000
v -2.200000 -0.898998 -8.800000
v 8.699000 0.000002 -6.524251
v 8.699000 0.000002 -8.699000
v 8.699000 0.000000 0.000000
v 8.699000 0.000000 -2.174750
v -2.174750 -0.000002 8.699000
v 0.000000 -0.000002 8.699000
v 6.524251 0.000002 -8.699000
v -8.699000 0.000002 -4.349500
v -8.699000 0.000000 -2.174750
v 2.174750 -0.000002 8.699000
v 8.699000 0.000002 -4.349500
v 4.349500 -0.000002 8.699000
v -8.699000 0.000002 -6.524251
v 6.524251 -0.000002 8.699000
v 8.699000 -0.000002 8.699000
v -8.699000 0.000002 -8.699000
v 8.699000 -0.000002 6.524251
v -6.524251 0.000002 -8.699000
v -8.699000 -0.000002 4.349500
v -4.349500 0.000002 -8.699000
v 8.698999 -0.000002 4.349500
v -2.174750 0.000002 -8.699000
v -8.699000 -0.000000 2.174750
v 0.000000 0.000002 -8.699000
v 8.699000 -0.000000 2.174750
v -6.524251 -0.000002 8.699000
v 2.174750 0.000002 -8.699000
v -8.699000 0.000000 0.000000
v 4.349500 0.000002 -8.698999
v -4.349500 -0.000002 8.699000
v -8.800000 -0.101002 8.699000
v -8.770418 -0.101002 8.770418
v -8.762766 -0.037236 8.762766
v -8.770418 -0.029584 8.699000
v -8.699000 -0.029584 8.770418
v 8.770418 -0.101002 8.770418
v 8.762766 -0.037236 8.762766
v 8.699000 -0.029584 8.770418
v 8.770418 -0.029584 8.699000
v -8.770418 -0.029581 -8.699000
v -8.762766 -0.037233 -8.762766
v -8.770418 -0.100998 -8.770418
v -8.699000 -0.029581 -8.770418
v 8.770418 -0.100998 -8.770418
v 8.762766 -0.037233 -8.762766
v 8.770418 -0.029581 -8.699000
v 8.699000 -0.029581 -8.770418
v -8.800000 -0.899002 8.699000
v -8.770419 -0.970419 8.699001
v -8.757314 -0.957314 8.757314
v -8.770419 -0.899002 8.770419
v -8.699001 -0.970419 8.770419
v 8.699001 -0.970419 8.770419
v 8.757314 -0.957314 8.757314
v 8.770419 -0.899002 8.770419
v 8.770419 -0.970419 8.699001
v -8.770419 -0.898998 -8.770419
v -8.757314 -0.957311 -8.757314
v -8.770419 -0.970416 -8.699001
v -8.699001 -0.970416 -8.770419
v 8.770419 -0.970416 -8.699001
v 8.757314 -0.957311 -8.757314
v 8.770419 -0.898998 -8.770419
v 8.699001 -0.970416 -8.770419
v -8.770418 -0.029584 6.577814
v -6.577814 -0.029584 8.770418
v -4.385209 -0.029584 8.770418
v -2.192605 -0.029584 8.770418
v 0.000000 -0.029584 8.770418
v 2.192605 -0.029584 8.770418
v 4.385209 -0.029584 8.770418
v 6.577814 -0.029584 8.770418
v 8.770418 -0.029584 6.577814
v -8.770418 -0.029585 4.385209
v 8.770419 -0.029585 4.385210
v -8.770418 -0.029582 2.192604
v 8.770418 -0.029582 2.192604
v -8.770418 -0.029582 -0.000000
v 8.770418 -0.029582 -0.000000
v -8.770418 -0.029583 -2.192605
v 8.770418 -0.029583 -2.192605
v -8.770418 -0.029580 -4.385209
v 8.770418 -0.029580 -4.385209
v -8.770418 -0.029580 -6.577814
v 8.770418 -0.029580 -6.577814
v -6.577814 -0.029581 -8.770418
v -4.385209 -0.029581 -8.770418
v -2.192605 -0.029581 -8.770418
v 0.000000 -0.029581 -8.770418
v 2.192605 -0.029581 -8.770418
v 4.385210 -0.029581 -8.770419
v 6.577814 -0.029581 -8.770418
v -8.770418 -0.970420 6.600000
v -6.600000 -0.970419 8.770418
v -4.400000 -0.970419 8.770418
v -2.200000 -0.970419 8.770418
v 0.000000 -0.970419 8.770418
v 2.200000 -0.970419 8.770418
v 4.400000 -0.970419 8.770418
v 6.600000 -0.970419 8.770418
v 8.770418 -0.970420 6.600000
v -8.770418 -0.970420 4.400000
v 8.770418 -0.970420 4.400000
v -8.770418 -0.970417 2.200000
v 8.770418 -0.970417 2.200000
v -8.770418 -0.970418 -0.000000
v 8.770418 -0.970418 -0.000000
v -8.770418 -0.970418 -2.200000
v 8.770418 -0.970418 -2.200000
v -8.770418 -0.970416 -4.400000
v 8.770418 -0.970416 -4.400000
v -8.770418 -0.970416 -6.600000
v 8.770418 -0.970416 -6.600000
v -6.600000 -0.970416 -8.770418
v -4.400000 -0.970416 -8.770418
v -2.200000 -0.970416 -8.770418
v 0.000000 -0.970416 -8.770418
v 2.200000 -0.970416 -8.770418
v 4.400000 -0.970416 -8.770418
v 6.600000 -0.970416 -8.770418
vn 0.0000 1.0000 0.0000
vn -0.9808 0.1951 0.0000
vn -0.9808 -0.1951 -0.0000
vn 0.0000 0.1951 0.9808
vn -0.1655 0.1655 0.9722
vn -0.1794 -0.1794 0.9673
vn 0.0000 -0.1951 0.9808
vn 0.0000 0.1951 -0.9808
vn 0.0000 -0.1951 -0.9808
vn -0.1951 0.9808 0.0000
vn -0.1655 0.9722 0.1655
vn 0.9808 0.1951 0.0000
vn 0.9808 -0.1951 -0.0000
vn -0.9722 0.1655 -0.1655
vn -0.9673 -0.1794 -0.1794
vn 0.1655 0.1655 0.9722
vn 0.1794 -0.1794 0.9673
vn 0.9722 0.1655 -0.1655
vn 0.9673 -0.1794 -0.1794
vn 0.1655 0.1655 -0.9722
vn 0.1794 -0.1794 -0.9673
vn -0.1655 0.1655 -0.9722
vn -0.1794 -0.1794 -0.9673
vn 0.9722 0.1655 0.1655
vn 0.9673 -0.1794 0.1794
vn -0.1951 -0.9808 -0.0000
vn -0.1794 -0.9673 -0.1794
vn 0.0000 -0.9808 -0.1951
vn 0.1794 -0.9673 -0.1794
vn 0.1951 -0.9808 -0.0000
vn 0.1794 -0.9673 0.1794
vn -0.0000 -0.9808 0.1951
vn -0.1794 -0.9673 0.1794
vn 0.1951 0.9808 0.0000
vn 0.1655 0.9722 -0.1655
vn 0.0000 0.9808 0.1951
vn 0.0000 0.9808 -0.1951
vn 0.1655 0.9722 0.1655
vn -0.1655 0.9722 -0.1655
vn -0.9722 0.1655 0.1655
vn -0.6994 0.1477 0.6994
vn -0.5773 0.5774 0.5773
vn -0.6994 0.6994 0.1477
vn -0.1477 0.6994 0.6994
vn 0.6994 0.1477 0.6994
vn 0.5773 0.5774 0.5773
vn 0.1477 0.6994 0.6994
vn 0.6994 0.6994 0.1477
vn -0.6994 0.6994 -0.1477
vn -0.5774 0.5774 -0.5773
vn -0.6994 0.1477 -0.6994
vn -0.1477 0.6994 -0.6994
vn 0.6994 0.1477 -0.6994
vn 0.5774 0.5774 -0.5773
vn 0.6994 0.6994 -0.1477
vn 0.1477 0.6994 -0.6994
vn -0.9673 -0.1794 0.1794
vn -0.6965 -0.6965 0.1726
vn -0.5774 -0.5773 0.5774
vn -0.6965 -0.1726 0.6965
vn -0.1726 -0.6965 0.6965
vn 0.1726 -0.6965 0.6965
vn 0.5774 -0.5773 0.5774
vn 0.6965 -0.1726 0.6965
vn 0.6965 -0.6965 0.1726
vn -0.6965 -0.1726 -0.6965
vn -0.5774 -0.5773 -0.5774
vn -0.6965 -0.6965 -0.1726
vn -0.1726 -0.6965 -0.6965
vn 0.6965 -0.6965 -0.1726
vn 0.5774 -0.5773 -0.5774
vn 0.6965 -0.1726 -0.6965
vn 0.1726 -0.6965 -0.6965
vn -0.7071 0.7071 0.0000
vn 0.0000 0.7071 0.7071
vn 0.7071 0.7071 0.0000
vn 0.0000 0.7071 -0.7071
vn -0.7071 -0.7071 -0.0000
vn 0.0000 -0.7071 0.7071
vn 0.7071 -0.7071 -0.0000
vn 0.0000 -0.7071 -0.7071
usemtl White
s 1
f 1//1 2//1 3//1 4//1
f 5//1 6//1 7//1 8//1
f 9//1 10//1 11//1 12//1
f 13//1 14//1 15//1 16//1
f 17//1 4//1 18//1 19//1
f 3//1 8//1 20//1 21//1
f 7//1 12//1 22//1 23//1
f 11//1 16//1 24//1 25//1
f 18//1 21//1 26//1 27//1
f 20//1 23//1 28//1 29//1
f 22//1 25//1 30//1 31//1
f 24//1 32//1 33//1 34//1
f 35//1 27//1 36//1 37//1
f 26//1 29//1 38//1 39//1
f 28//1 31//1 40//1 41//1
f 30//1 34//1 42//1 43//1
f 36//1 39//1 44//1 45//1
f 38//1 41//1 46//1 47//1
f 40//1 43//1 48//1 49//1
f 42//1 50//1 51//1 52//1
f 53//1 45//1 54//1 55//1
f 44//1 47//1 56//1 57//1
f 46//1 49//1 58//1 59//1
f 48//1 52//1 60//1 61//1
f 54//1 57//1 62//1 63//1
f 56//1 59//1 64//1 65//1
f 58//1 61//1 66//1 67//1
f 60//1 68//1 69//1 70//1
f 71//1 63//1 72//1 73//1
f 62//1 65//1 74//1 75//1
f 64//1 67//1 76//1 77//1
f 66//1 70//1 78//1 79//1
usemtl Black
f 80//1 1//1 4//1 17//1
f 2//1 5//1 8//1 3//1
f 6//1 9//1 12//1 7//1
f 10//1 13//1 16//1 11//1
f 4//1 3//1 21//1 18//1
f 8//1 7//1 23//1 20//1
f 12//1 11//1 25//1 22//1
f 16//1 15//1 32//1 24//1
f 19//1 18//1 27//1 35//1
f 21//1 20//1 29//1 26//1
f 23//1 22//1 31//1 28//1
f 25//1 24//1 34//1 30//1
f 27//1 26//1 39//1 36//1
f 29//1 28//1 41//1 38//1
f 31//1 30//1 43//1 40//1
f 34//1 33//1 50//1 42//1
f 37//1 36//1 45//1 53//1
f 39//1 38//1 47//1 44//1
f 41//1 40//1 49//1 46//1
f 43//1 42//1 52//1 48//1
f 45//1 44//1 57//1 54//1
f 47//1 46//1 59//1 56//1
f 49//1 48//1 61//1 58//1
f 52//1 51//1 68//1 60//1
f 55//1 54//1 63//1 71//1
f 57//1 56//1 65//1 62//1
f 59//1 58//1 67//1 64//1
f 61//1 60//1 70//1 66//1
f 63//1 62//1 75//1 72//1
f 65//1 64//1 77//1 74//1
f 67//1 66//1 79//1 76//1
f 70//1 69//1 81//1 78//1
usemtl Board
f 82//2 83//2 84//3 85//3
f 86//4 87//5 88//6 89//7
f 90//2 91//2 92//3 93//3
f 94//8 95//8 96//9 97//9
f 80//1 17//1 98//10 99//11
f 100//12 101//12 102//13 103//13
f 104//4 105//4 106//7 107//7
f 108//12 109//12 110//13 111//13
f 95//8 112//8 113//9 96//9
f 83//2 114//2 115//3 84//3
f 116//4 117//4 118//7 119//7
f 91//2 120//14 121//15 92//3
f 112//8 122//8 123//9 113//9
f 124//12 100//12 103//13 125//13
f 126//16 104//4 107//7 127//17
f 128//18 108//12 111//13 129//19
f 122//8 130//20 131//21 123//9
f 114//2 132//2 133//3 115//3
f 134//4 116//4 119//7 135//7
f 136//22 137//8 138//9 139//23
f 137//8 140//8 141//9 138//9
f 142//12 143//24 144//25 145//13
f 146//26 147//26 148//26 149//26 150//26 151//26 152//26 153//27 154//28 155//28 156//28 157//28 158//28 159//28 160//28 161//29 162//30 163//30 164//30 165//30 166//30 167//30 168//30 169//31 170//32 171//32 172//32 173//32 174//32 175//32 176//32 177//33
f 178//12 124//12 125//13 179//13
f 180//2 82//2 85//3 181//3
f 182//4 134//4 135//7 183//7
f 140//8 184//8 185//9 141//9
f 132//2 90//2 93//3 133//3
f 101//12 142//12 145//13 102//13
f 184//8 94//8 97//9 185//9
f 109//12 178//12 179//13 110//13
f 105//4 182//4 183//7 106//7
f 81//1 69//1 186//34 187//35
f 51//1 50//1 188//34 189//34
f 6//1 5//1 190//36 191//36
f 78//1 81//1 187//35 192//37
f 53//1 55//1 193//10 194//10
f 9//1 6//1 191//36 195//36
f 68//1 51//1 189//34 196//34
f 10//1 9//1 195//36 197//36
f 55//1 71//1 198//10 193//10
f 13//1 10//1 197//36 199//36
f 69//1 68//1 196//34 186//34
f 14//1 13//1 199//36 200//38
f 71//1 73//1 201//39 198//10
f 15//1 14//1 200//38 202//34
f 73//1 72//1 203//37 201//39
f 17//1 19//1 204//10 98//10
f 72//1 75//1 205//37 203//37
f 32//1 15//1 202//34 206//34
f 75//1 74//1 207//37 205//37
f 19//1 35//1 208//10 204//10
f 74//1 77//1 209//37 207//37
f 33//1 32//1 206//34 210//34
f 1//1 80//1 99//11 211//36
f 77//1 76//1 212//37 209//37
f 35//1 37//1 213//10 208//10
f 117//4 86//4 89//7 118//7
f 76//1 79//1 214//37 212//37
f 50//1 33//1 210//34 188//34
f 2//1 1//1 211//36 215//36
f 79//1 78//1 192//37 214//37
f 37//1 53//1 194//10 213//10
f 5//1 2//1 215//36 190//36
f 216//40 217//41 218//42 219//43
f 87//5 220//44 218//42 217//41
f 99//11 219//43 218//42 220//44
f 126//16 221//45 222//46 223//47
f 143//24 224//48 222//46 221//45
f 200//38 223//47 222//46 224//48
f 120//14 225//49 226//50 227//51
f 201//39 228//52 226//50 225//49
f 136//22 227//51 226//50 228//52
f 128//18 229//53 230//54 231//55
f 130//20 232//56 230//54 229//53
f 187//35 231//55 230//54 232//56
f 233//57 234//58 235//59 236//60
f 177//33 237//61 235//59 234//58
f 88//6 236//60 235//59 237//61
f 127//17 238//62 239//63 240//64
f 169//31 241//65 239//63 238//62
f 144//25 240//64 239//63 241//65
f 121//15 242//66 243//67 244//68
f 139//23 245//69 243//67 242//66
f 153//27 244//68 243//67 245//69
f 129//19 246//70 247//71 248//72
f 161//29 249//73 247//71 246//70
f 131//21 248//72 247//71 249//73
f 180//2 216//40 219//43 250//74
f 250//74 219//43 99//11 98//10
f 87//5 86//4 251//75 220//44
f 220//44 251//75 211//36 99//11
f 86//4 117//4 252//75 251//75
f 251//75 252//75 215//36 211//36
f 117//4 116//4 253//75 252//75
f 252//75 253//75 190//36 215//36
f 116//4 134//4 254//75 253//75
f 253//75 254//75 191//36 190//36
f 134//4 182//4 255//75 254//75
f 254//75 255//75 195//36 191//36
f 182//4 105//4 256//75 255//75
f 255//75 256//75 197//36 195//36
f 105//4 104//4 257//75 256//75
f 256//75 257//75 199//36 197//36
f 104//4 126//16 223//47 257//75
f 257//75 223//47 200//38 199//36
f 143//24 142//12 258//76 224//48
f 224//48 258//76 202//34 200//38
f 82//2 180//2 250//74 259//74
f 259//74 250//74 98//10 204//10
f 142//12 101//12 260//76 258//76
f 258//76 260//76 206//34 202//34
f 83//2 82//2 259//74 261//74
f 261//74 259//74 204//10 208//10
f 101//12 100//12 262//76 260//76
f 260//76 262//76 210//34 206//34
f 114//2 83//2 261//74 263//74
f 263//74 261//74 208//10 213//10
f 100//12 124//12 264//76 262//76
f 262//76 264//76 188//34 210//34
f 132//2 114//2 263//74 265//74
f 265//74 263//74 213//10 194//10
f 124//12 178//12 266//76 264//76
f 264//76 266//76 189//34 188//34
f 90//2 132//2 265//74 267//74
f 267//74 265//74 194//10 193//10
f 178//12 109//12 268//76 266//76
f 266//76 268//76 196//34 189//34
f 91//2 90//2 267//74 269//74
f 269//74 267//74 193//10 198//10
f 109//12 108//12 270//76 268//76
f 268//76 270//76 186//34 196//34
f 120//14 91//2 269//74 225//49
f 225//49 269//74 198//10 201//39
f 137//8 136//22 228//52 271//77
f 271//77 228//52 201//39 203//37
f 140//8 137//8 271//77 272//77
f 272//77 271//77 203//37 205//37
f 184//8 140//8 272//77 273//77
f 273//77 272//77 205//37 207//37
f 94//8 184//8 273//77 274//77
f 274//77 273//77 207//37 209//37
f 95//8 94//8 274//77 275//77
f 275//77 274//77 209//37 212//37
f 112//8 95//8 275//77 276//77
f 276//77 275//77 212//37 214//37
f 122//8 112//8 276//77 277//77
f 277//77 276//77 214//37 192//37
f 108//12 128//18 231//55 270//76
f 270//76 231//55 187//35 186//34
f 130//20 122//8 277//77 232//56
f 232//56 277//77 192//37 187//35
f 146//26 177//33 234//58 278//78
f 278//78 234//58 233//57 181//3
f 177//33 176//32 279//79 237//61
f 237//61 279//79 89//7 88//6
f 176//32 175//32 280//79 279//79
f 279//79 280//79 118//7 89//7
f 175//32 174//32 281//79 280//79
f 280//79 281//79 119//7 118//7
f 174//32 173//32 282//79 281//79
f 281//79 282//79 135//7 119//7
f 173//32 172//32 283//79 282//79
f 282//79 283//79 183//7 135//7
f 172//32 171//32 284//79 283//79
f 283//79 284//79 106//7 183//7
f 171//32 170//32 285//79 284//79
f 284//79 285//79 107//7 106//7
f 170//32 169//31 238//62 285//79
f 285//79 238//62 127//17 107//7
f 169//31 168//30 286//80 241//65
f 241//65 286//80 145//13 144//25
f 147//26 146//26 278//78 287//78
f 287//78 278//78 181//3 85//3
f 168//30 167//30 288//80 286//80
f 286//80 288//80 102//13 145//13
f 148//26 147//26 287//78 289//78
f 289//78 287//78 85//3 84//3
f 167//30 166//30 290//80 288//80
f 288//80 290//80 103//13 102//13
f 149//26 148//26 289//78 291//78
f 291//78 289//78 84//3 115//3
f 166//30 165//30 292//80 290//80
f 290//80 292//80 125//13 103//13
f 150//26 149//26 291//78 293//78
f 293//78 291//78 115//3 133//3
f 165//30 164//30 294//80 292//80
f 292//80 294//80 179//13 125//13
f 151//26 150//26 293//78 295//78
f 295//78 293//78 133//3 93//3
f 164//30 163//30 296//80 294//80
f 294//80 296//80 110//13 179//13
f 152//26 151//26 295//78 297//78
f 297//78 295//78 93//3 92//3
f 163//30 162//30 298//80 296//80
f 296//80 298//80 111//13 110//13
f 153//27 152//26 297//78 244//68
f 244//68 297//78 92//3 121//15
f 154//28 153//27 245//69 299//81
f 299//81 245//69 139//23 138//9
f 155//28 154//28 299//81 300//81
f 300//81 299//81 138//9 141//9
f 156//28 155//28 300//81 301//81
f 301//81 300//81 141//9 185//9
f 157//28 156//28 301//81 302//81
f 302//81 301//81 185//9 97//9
f 158//28 157//28 302//81 303//81
f 303//81 302//81 97//9 96//9
f 159//28 158//28 303//81 304//81
f 304//81 303//81 96//9 113//9
f 160//28 159//28 304//81 305//81
f 305//81 304//81 113//9 123//9
f 162//30 161//29 246//70 298//80
f 298//80 246//70 129//19 111//13
f 161//29 160//28 305//81 249//73
f 249//73 305//81 123//9 131//21
f 131//21 130//20 229//53 248//72
f 248//72 229//53 128//18 129//19
f 144//25 143//24 221//45 240//64
f 240//64 221//45 126//16 127//17
f 136//22 139//23 242//66 227//51
f 227//51 242//66 121//15 120//14
f 88//6 87//5 217//41 236//60
f 236//60 217//41 216//40 233//57
f 216//40 180//2 181//3 233//57
